<svg width="86" height="26" viewBox="0 0 86 26" fill="none" xmlns="http://www.w3.org/2000/svg">
<g clip-path="url(#clip0_482_47)">
<path d="M18.0722 8.57189C18.1378 8.57302 18.2026 8.58708 18.2628 8.61325C18.3231 8.63943 18.3775 8.67721 18.4232 8.72444C18.4688 8.77167 18.5046 8.82742 18.5287 8.88851C18.5528 8.9496 18.5646 9.01484 18.5634 9.08049L18.5267 11.2018C18.5256 11.2675 18.5116 11.3323 18.4854 11.3926C18.4593 11.4529 18.4215 11.5074 18.3743 11.553C18.327 11.5987 18.2713 11.6346 18.2102 11.6587C18.149 11.6828 18.0838 11.6946 18.0181 11.6935C17.9524 11.6924 17.8876 11.6783 17.8273 11.6521C17.7671 11.6259 17.7126 11.588 17.667 11.5408C17.6214 11.4935 17.5855 11.4377 17.5615 11.3766C17.5374 11.3154 17.5257 11.2501 17.5269 11.1845L17.5636 9.06314C17.5648 8.99749 17.5788 8.9327 17.605 8.87248C17.6311 8.81226 17.6689 8.75778 17.7162 8.71217C17.7634 8.66655 17.8191 8.63068 17.8802 8.60661C17.9413 8.58254 18.0065 8.57074 18.0722 8.57189ZM20.642 9.07179V17.5571C20.642 18.4398 20.2913 19.2864 19.6671 19.9106C19.0429 20.5348 18.1963 20.8855 17.3136 20.8855C16.4308 20.8855 15.5842 20.5349 14.96 19.9107C14.3358 19.2865 13.9851 18.4399 13.9851 17.5571L13.9851 9.07183C13.9851 8.18908 14.3358 7.34247 14.96 6.71827C15.5842 6.09406 16.4308 5.74338 17.3135 5.74337C18.1963 5.74337 19.0429 6.09404 19.6671 6.71824C20.2913 7.34244 20.642 8.18903 20.642 9.07179ZM17.3135 6.7434C17.0077 6.74339 16.705 6.80362 16.4225 6.92063C16.14 7.03764 15.8833 7.20915 15.6671 7.42536C15.4509 7.64158 15.2794 7.89826 15.1624 8.18075C15.0453 8.46325 14.9851 8.76602 14.9851 9.07179L14.9851 12.8145L19.642 12.8145L19.6419 9.07184C19.6413 8.45451 19.3957 7.86266 18.9592 7.42615C18.5227 6.98963 17.9308 6.74409 17.3135 6.7434Z" fill="#0077B5"/>
</g>
<path d="M26.5511 5.45455V20H24.4276V5.45455H26.5511ZM31.5316 5.45455V20H29.408V5.45455H31.5316Z" fill="#0077B5"/>
<path d="M1.59801 20V5.45455H6.78267C7.9143 5.45455 8.8518 5.66051 9.59517 6.07244C10.3385 6.48437 10.8949 7.04782 11.2642 7.76278C11.6335 8.47301 11.8182 9.2732 11.8182 10.1634C11.8182 11.0582 11.6312 11.8632 11.2571 12.5781C10.8878 13.2884 10.3291 13.8518 9.58097 14.2685C8.83759 14.6804 7.90246 14.8864 6.77557 14.8864H3.21023V13.0256H6.5767C7.29167 13.0256 7.87169 12.9025 8.31676 12.6562C8.76184 12.4053 9.08854 12.0644 9.29688 11.6335C9.50521 11.2027 9.60938 10.7126 9.60938 10.1634C9.60938 9.61411 9.50521 9.12642 9.29688 8.70028C9.08854 8.27415 8.75947 7.94034 8.30966 7.69886C7.86458 7.45739 7.27746 7.33665 6.5483 7.33665H3.79261V20H1.59801Z" fill="#0077B5"/>
<path d="M36 2C36 0.89543 36.8954 0 38 0H84C85.1046 0 86 0.895431 86 2V24C86 25.1046 85.1046 26 84 26H38C36.8954 26 36 25.1046 36 24V2Z" fill="#0077B5"/>
<path d="M43.5181 20V6.18182H45.603V18.2053H51.8643V20H43.5181ZM54.0808 20V9.63636H56.0982V20H54.0808ZM55.0996 8.03729C54.7488 8.03729 54.4474 7.92034 54.1955 7.68643C53.9481 7.44803 53.8244 7.16465 53.8244 6.83629C53.8244 6.50343 53.9481 6.22005 54.1955 5.98615C54.4474 5.74775 54.7488 5.62855 55.0996 5.62855C55.4505 5.62855 55.7496 5.74775 55.997 5.98615C56.2489 6.22005 56.3748 6.50343 56.3748 6.83629C56.3748 7.16465 56.2489 7.44803 55.997 7.68643C55.7496 7.92034 55.4505 8.03729 55.0996 8.03729ZM60.8296 13.8466V20H58.8122V9.63636H60.7487V11.3232H60.8769C61.1153 10.7744 61.4886 10.3336 61.9969 10.0007C62.5097 9.66785 63.1552 9.50142 63.9333 9.50142C64.6395 9.50142 65.258 9.64986 65.7888 9.94673C66.3196 10.2391 66.7311 10.6754 67.0235 11.2557C67.3159 11.8359 67.4621 12.5534 67.4621 13.408V20H65.4447V13.6509C65.4447 12.8997 65.249 12.3127 64.8577 11.8899C64.4664 11.4626 63.9288 11.2489 63.2451 11.2489C62.7773 11.2489 62.3612 11.3501 61.9969 11.5526C61.637 11.755 61.3514 12.0518 61.14 12.4432C60.9331 12.83 60.8296 13.2978 60.8296 13.8466ZM72.0232 16.4847L72.0097 14.022H72.3605L76.4898 9.63636H78.9053L74.1958 14.6293H73.8786L72.0232 16.4847ZM70.1677 20V6.18182H72.1851V20H70.1677ZM76.7124 20L73.0015 15.0746L74.3914 13.6644L79.1887 20H76.7124Z" fill="white"/>
<defs>
<clipPath id="clip0_482_47">
<rect width="16" height="16" fill="white" transform="translate(6 13.3145) rotate(-45)"/>
</clipPath>
</defs>
</svg>
