<svg width="74" height="24" viewBox="0 0 74 24" fill="none" xmlns="http://www.w3.org/2000/svg">
<g clip-path="url(#clip0_483_48)">
<path d="M18.0722 7.57189C18.1378 7.57302 18.2026 7.58708 18.2628 7.61325C18.3231 7.63943 18.3775 7.67721 18.4232 7.72444C18.4688 7.77167 18.5046 7.82742 18.5287 7.88851C18.5528 7.9496 18.5646 8.01484 18.5634 8.08049L18.5267 10.2018C18.5256 10.2675 18.5116 10.3323 18.4854 10.3926C18.4593 10.4529 18.4215 10.5074 18.3743 10.553C18.327 10.5987 18.2713 10.6346 18.2102 10.6587C18.149 10.6828 18.0838 10.6946 18.0181 10.6935C17.9524 10.6924 17.8876 10.6783 17.8273 10.6521C17.7671 10.6259 17.7126 10.588 17.667 10.5408C17.6214 10.4935 17.5855 10.4377 17.5615 10.3766C17.5374 10.3154 17.5257 10.2501 17.5269 10.1845L17.5636 8.06314C17.5648 7.99749 17.5788 7.9327 17.605 7.87248C17.6311 7.81226 17.6689 7.75778 17.7162 7.71217C17.7634 7.66655 17.8191 7.63068 17.8802 7.60661C17.9413 7.58254 18.0065 7.57074 18.0722 7.57189ZM20.642 8.07179V16.5571C20.642 17.4398 20.2913 18.2864 19.6671 18.9106C19.0429 19.5348 18.1963 19.8855 17.3136 19.8855C16.4308 19.8855 15.5842 19.5349 14.96 18.9107C14.3358 18.2865 13.9851 17.4399 13.9851 16.5571L13.9851 8.07183C13.9851 7.18908 14.3358 6.34247 14.96 5.71827C15.5842 5.09406 16.4308 4.74338 17.3135 4.74337C18.1963 4.74337 19.0429 5.09404 19.6671 5.71824C20.2913 6.34243 20.642 7.18903 20.642 8.07179ZM17.3135 5.7434C17.0077 5.74339 16.705 5.80362 16.4225 5.92063C16.14 6.03764 15.8833 6.20915 15.6671 6.42536C15.4509 6.64158 15.2794 6.89826 15.1624 7.18075C15.0453 7.46325 14.9851 7.76602 14.9851 8.07179L14.9851 11.8145L19.642 11.8145L19.6419 8.07184C19.6413 7.45451 19.3957 6.86266 18.9592 6.42615C18.5227 5.98963 17.9308 5.74409 17.3135 5.7434Z" fill="white"/>
</g>
<path d="M26.5511 4.45455V19H24.4276V4.45455H26.5511ZM31.5316 4.45455V19H29.408V4.45455H31.5316Z" fill="white"/>
<path d="M1.59801 19V4.45455H6.78267C7.9143 4.45455 8.8518 4.66051 9.59517 5.07244C10.3385 5.48437 10.8949 6.04782 11.2642 6.76278C11.6335 7.47301 11.8182 8.2732 11.8182 9.16335C11.8182 10.0582 11.6312 10.8632 11.2571 11.5781C10.8878 12.2884 10.3291 12.8518 9.58097 13.2685C8.83759 13.6804 7.90246 13.8864 6.77557 13.8864H3.21023V12.0256H6.5767C7.29167 12.0256 7.87169 11.9025 8.31676 11.6562C8.76184 11.4053 9.08854 11.0644 9.29688 10.6335C9.50521 10.2027 9.60938 9.71259 9.60938 9.16335C9.60938 8.61411 9.50521 8.12642 9.29688 7.70028C9.08854 7.27415 8.75947 6.94034 8.30966 6.69886C7.86458 6.45739 7.27746 6.33665 6.5483 6.33665H3.79261V19H1.59801Z" fill="white"/>
<path d="M37.5181 19V5.18182H39.603V17.2053H45.8643V19H37.5181ZM48.0808 19V8.63636H50.0982V19H48.0808ZM49.0996 7.03729C48.7488 7.03729 48.4474 6.92034 48.1955 6.68643C47.9481 6.44803 47.8244 6.16465 47.8244 5.83629C47.8244 5.50343 47.9481 5.22005 48.1955 4.98615C48.4474 4.74775 48.7488 4.62855 49.0996 4.62855C49.4505 4.62855 49.7496 4.74775 49.997 4.98615C50.2489 5.22005 50.3748 5.50343 50.3748 5.83629C50.3748 6.16465 50.2489 6.44803 49.997 6.68643C49.7496 6.92034 49.4505 7.03729 49.0996 7.03729ZM54.8296 12.8466V19H52.8122V8.63636H54.7487V10.3232H54.8769C55.1153 9.77438 55.4886 9.33357 55.9969 9.00071C56.5097 8.66785 57.1552 8.50142 57.9333 8.50142C58.6395 8.50142 59.258 8.64986 59.7888 8.94673C60.3196 9.23911 60.7311 9.67543 61.0235 10.2557C61.3159 10.8359 61.4621 11.5534 61.4621 12.408V19H59.4447V12.6509C59.4447 11.8997 59.249 11.3127 58.8577 10.8899C58.4664 10.4626 57.9288 10.2489 57.2451 10.2489C56.7773 10.2489 56.3612 10.3501 55.9969 10.5526C55.637 10.755 55.3514 11.0518 55.14 11.4432C54.9331 11.83 54.8296 12.2978 54.8296 12.8466ZM66.0232 15.4847L66.0097 13.022H66.3605L70.4898 8.63636H72.9053L68.1958 13.6293H67.8786L66.0232 15.4847ZM64.1677 19V5.18182H66.1851V19H64.1677ZM70.7124 19L67.0015 14.0746L68.3914 12.6644L73.1887 19H70.7124Z" fill="white"/>
<defs>
<clipPath id="clip0_483_48">
<rect width="16" height="16" fill="white" transform="translate(6 12.3145) rotate(-45)"/>
</clipPath>
</defs>
</svg>
