<svg width="34" height="24" viewBox="0 0 34 24" fill="none" xmlns="http://www.w3.org/2000/svg">
<g clip-path="url(#clip0_482_42)">
<path d="M18.0722 7.57189C18.1378 7.57302 18.2026 7.58708 18.2628 7.61325C18.3231 7.63943 18.3775 7.67721 18.4232 7.72444C18.4688 7.77167 18.5046 7.82742 18.5287 7.88851C18.5528 7.9496 18.5646 8.01484 18.5634 8.08049L18.5267 10.2018C18.5256 10.2675 18.5116 10.3323 18.4854 10.3926C18.4593 10.4529 18.4215 10.5074 18.3743 10.553C18.327 10.5987 18.2713 10.6346 18.2102 10.6587C18.149 10.6828 18.0838 10.6946 18.0181 10.6935C17.9524 10.6924 17.8876 10.6783 17.8273 10.6521C17.7671 10.6259 17.7126 10.588 17.667 10.5408C17.6214 10.4935 17.5855 10.4377 17.5615 10.3766C17.5374 10.3154 17.5257 10.2501 17.5269 10.1845L17.5636 8.06314C17.5648 7.99749 17.5788 7.9327 17.605 7.87248C17.6311 7.81226 17.6689 7.75778 17.7162 7.71217C17.7634 7.66655 17.8191 7.63068 17.8802 7.60661C17.9413 7.58254 18.0065 7.57074 18.0722 7.57189ZM20.642 8.07179V16.5571C20.642 17.4398 20.2913 18.2864 19.6671 18.9106C19.0429 19.5348 18.1963 19.8855 17.3136 19.8855C16.4308 19.8855 15.5842 19.5349 14.96 18.9107C14.3358 18.2865 13.9851 17.4399 13.9851 16.5571L13.9851 8.07183C13.9851 7.18908 14.3358 6.34247 14.96 5.71827C15.5842 5.09406 16.4308 4.74338 17.3135 4.74337C18.1963 4.74337 19.0429 5.09404 19.6671 5.71824C20.2913 6.34244 20.642 7.18903 20.642 8.07179ZM17.3135 5.7434C17.0077 5.74339 16.705 5.80362 16.4225 5.92063C16.14 6.03764 15.8833 6.20915 15.6671 6.42536C15.4509 6.64158 15.2794 6.89826 15.1624 7.18075C15.0453 7.46325 14.9851 7.76602 14.9851 8.07179L14.9851 11.8145L19.642 11.8145L19.6419 8.07184C19.6413 7.45451 19.3957 6.86266 18.9592 6.42615C18.5227 5.98963 17.9308 5.74409 17.3135 5.7434Z" fill="#0077B5"/>
</g>
<path d="M26.5511 4.45455V19H24.4276V4.45455H26.5511ZM31.5316 4.45455V19H29.408V4.45455H31.5316Z" fill="#0077B5"/>
<path d="M1.59801 19V4.45455H6.78267C7.9143 4.45455 8.8518 4.66051 9.59517 5.07244C10.3385 5.48437 10.8949 6.04782 11.2642 6.76278C11.6335 7.47301 11.8182 8.2732 11.8182 9.16335C11.8182 10.0582 11.6312 10.8632 11.2571 11.5781C10.8878 12.2884 10.3291 12.8518 9.58097 13.2685C8.83759 13.6804 7.90246 13.8864 6.77557 13.8864H3.21023V12.0256H6.5767C7.29167 12.0256 7.87169 11.9025 8.31676 11.6562C8.76184 11.4053 9.08854 11.0644 9.29688 10.6335C9.50521 10.2027 9.60938 9.71259 9.60938 9.16335C9.60938 8.61411 9.50521 8.12642 9.29688 7.70028C9.08854 7.27415 8.75947 6.94034 8.30966 6.69886C7.86458 6.45739 7.27746 6.33665 6.5483 6.33665H3.79261V19H1.59801Z" fill="#0077B5"/>
<defs>
<clipPath id="clip0_482_42">
<rect width="16" height="16" fill="white" transform="translate(6 12.3145) rotate(-45)"/>
</clipPath>
</defs>
</svg>
